<?xml version="1.0" standalone="no"?>
<!DOCTYPE svg PUBLIC "-//W3C//DTD SVG 20010904//EN"
 "http://www.w3.org/TR/2001/REC-SVG-20010904/DTD/svg10.dtd">
<svg version="1.0" xmlns="http://www.w3.org/2000/svg"
 width="360.000000pt" height="360.000000pt" viewBox="0 0 360.000000 360.000000"
 preserveAspectRatio="xMidYMid meet">
<metadata>
Created by potrace 1.11, written by Peter Selinger 2001-2013
</metadata>
<g transform="translate(0.000000,360.000000) scale(0.100000,-0.100000)"
fill="#000000" stroke="none">
<path d="M1925 3350 c-23 -5 -57 -18 -77 -30 -27 -16 -45 -20 -71 -15 -28 6
-35 3 -39 -12 -6 -22 -88 -50 -108 -38 -7 4 -18 -2 -26 -13 -15 -21 -72 -38
-117 -33 -17 1 -29 -3 -33 -13 -8 -20 -69 -39 -105 -32 -22 4 -31 1 -39 -13
-12 -24 -72 -45 -107 -38 -15 3 -27 -1 -30 -10 -7 -17 -67 -43 -102 -43 -15 0
-35 -9 -45 -21 -14 -17 -25 -20 -57 -15 -33 5 -41 3 -55 -18 -8 -14 -32 -30
-52 -37 -20 -7 -48 -20 -61 -30 -13 -11 -29 -19 -36 -19 -7 0 -23 -9 -36 -19
-16 -12 -34 -17 -51 -14 -55 11 -42 -40 14 -52 16 -4 38 -14 47 -24 9 -9 32
-17 50 -18 45 -2 91 -22 91 -40 0 -11 7 -14 27 -10 30 6 67 -6 89 -28 9 -8 25
-15 38 -15 12 0 37 -11 56 -25 19 -14 42 -25 52 -25 10 0 28 -11 40 -25 12
-14 27 -25 35 -25 7 0 20 -11 29 -25 15 -22 14 -30 -3 -105 -10 -44 -17 -96
-15 -115 5 -42 19 -48 197 -71 243 -33 617 -16 833 37 45 11 92 19 105 17 l22
-3 10 -340 c10 -335 10 -340 33 -363 29 -29 63 -42 113 -42 39 0 40 1 38 33
-1 17 2 50 6 71 6 32 4 42 -9 52 -18 13 -45 135 -46 206 0 20 -6 38 -12 40 -8
3 -15 33 -18 84 -7 109 7 524 19 549 5 11 12 28 15 38 7 22 46 37 97 37 21 0
39 5 39 10 0 16 50 32 100 32 35 0 49 5 67 25 20 20 31 24 71 22 l47 -3 3 37
c3 31 -1 39 -23 49 -14 6 -28 22 -31 35 -5 17 -13 23 -33 23 -15 0 -34 9 -44
20 -9 11 -23 20 -32 20 -8 0 -21 13 -29 28 -12 24 -20 28 -45 24 -24 -3 -32 1
-44 24 -13 24 -22 29 -54 29 -32 0 -39 4 -41 23 -3 19 -9 22 -48 22 -39 0 -46
3 -54 26 -8 20 -15 24 -31 19 -30 -10 -67 2 -74 25 -3 11 -12 17 -20 14 -22
-9 -88 16 -107 39 -13 17 -25 21 -57 18 -31 -2 -43 2 -53 18 -8 13 -23 21 -41
21 -40 0 -97 26 -97 44 0 17 -13 18 -75 6z"/>
<path d="M1625 1414 c-169 -17 -240 -27 -293 -42 -53 -15 -65 -23 -91 -62 -22
-32 -31 -57 -31 -87 0 -59 -15 -91 -46 -99 -17 -4 -31 -18 -40 -40 -10 -25
-21 -34 -38 -34 -13 0 -36 -12 -51 -26 -20 -19 -36 -25 -61 -22 -22 1 -38 -3
-46 -14 -17 -22 -60 -38 -103 -38 -18 0 -35 -5 -37 -11 -6 -18 -80 -39 -114
-33 -25 5 -37 0 -57 -20 -25 -25 -45 -30 -94 -26 -15 1 -23 -4 -23 -14 0 -21
-37 -39 -65 -32 -18 5 -24 1 -29 -20 -4 -13 -14 -28 -24 -31 -18 -6 -139 -128
-180 -180 -13 -18 -33 -33 -43 -33 -15 0 -19 -7 -19 -31 0 -17 -6 -37 -14 -45
-8 -8 -20 -39 -26 -70 -9 -42 -17 -58 -32 -62 -17 -4 -19 -10 -14 -44 7 -42
-17 -98 -41 -98 -10 0 -13 -25 -13 -100 l0 -100 1686 0 1686 0 -8 108 c-5 59
-9 133 -8 165 0 44 -3 57 -13 53 -17 -7 -28 21 -38 91 -4 29 -15 64 -26 77
-11 15 -19 40 -19 64 0 31 -4 41 -19 45 -11 3 -26 21 -34 40 -8 19 -20 38 -26
41 -6 4 -11 18 -11 31 0 16 -7 25 -25 29 -14 4 -31 18 -37 31 -6 14 -20 27
-30 31 -11 3 -23 16 -28 28 -8 21 -17 24 -86 28 -60 4 -81 10 -93 24 -12 14
-26 18 -53 16 -39 -3 -108 20 -108 37 0 6 -15 11 -34 11 -33 0 -66 21 -66 41
0 5 -13 9 -29 9 -17 0 -36 8 -43 18 -7 9 -25 23 -40 29 -14 6 -29 21 -33 32
-3 12 -16 21 -33 23 -23 3 -27 8 -30 42 -3 28 -9 40 -23 43 -12 4 -22 17 -26
36 -4 17 -14 32 -25 35 -12 3 -17 10 -14 19 8 19 -11 53 -29 53 -8 0 -15 7
-15 15 0 24 -41 43 -120 55 -76 11 -452 21 -525 14z"/>
</g>
</svg>
